<svg width="13" height="13" viewBox="0 0 14 14" fill="none" xmlns="http://www.w3.org/2000/svg">
<path d="M7 13C3.68629 13 1 10.3137 1 7C1 3.68629 3.68629 1 7 1C10.3137 1 13 3.68629 13 7C13 7.72151 12.8726 8.41327 12.6392 9.05403C12.5551 9.28497 12.4075 9.48606 12.2268 9.65272L12.1463 9.72701C11.591 10.2392 10.7573 10.3049 10.1288 9.88584C9.67347 9.58232 9.4 9.07133 9.4 8.52413V7M9.4 7C9.4 8.32548 8.32548 9.4 7 9.4C5.67452 9.4 4.6 8.32548 4.6 7C4.6 5.67452 5.67452 4.6 7 4.6C8.32548 4.6 9.4 5.67452 9.4 7Z" stroke="white" stroke-width="1" stroke-linecap="round"/>
</svg>
